<svg width="24" height="30" viewBox="0 0 24 30" fill="none" xmlns="http://www.w3.org/2000/svg">
<path d="M12.0667 29.3333L5.8 17.3333C4.22222 17.4 2.86111 16.9444 1.71667 15.9667C0.572222 14.9889 0 13.6667 0 12C0 10.8667 0.327778 9.84444 0.983333 8.93333C1.63889 8.02222 2.46667 7.37778 3.46667 7C3.86667 4.97778 4.86111 3.30556 6.45 1.98333C8.03889 0.661111 9.88889 0 12 0C14.1111 0 15.9611 0.661111 17.55 1.98333C19.1389 3.30556 20.1333 4.97778 20.5333 7C21.5333 7.37778 22.3611 8.02222 23.0167 8.93333C23.6722 9.84444 24 10.8667 24 12C24 13.6667 23.4111 14.9889 22.2333 15.9667C21.0556 16.9444 19.7333 17.4 18.2667 17.3333L12.0667 29.3333ZM5.33333 14.6667C5.66667 14.6667 5.99444 14.6111 6.31667 14.5C6.63889 14.3889 6.93333 14.2 7.2 13.9333L7.93333 13.2L8.8 13.7333C9.26667 14.0444 9.77222 14.2778 10.3167 14.4333C10.8611 14.5889 11.4222 14.6667 12 14.6667C12.5778 14.6667 13.1389 14.5889 13.6833 14.4333C14.2278 14.2778 14.7333 14.0444 15.2 13.7333L16.0667 13.2L16.8 13.9333C17.0667 14.2 17.3611 14.3889 17.6833 14.5C18.0056 14.6111 18.3333 14.6667 18.6667 14.6667C19.4 14.6667 20.0278 14.4056 20.55 13.8833C21.0722 13.3611 21.3333 12.7333 21.3333 12C21.3333 11.3333 21.1222 10.75 20.7 10.25C20.2778 9.75 19.7333 9.44444 19.0667 9.33333L18.0667 9.2L18 8.13333C17.8889 6.6 17.2556 5.30556 16.1 4.25C14.9444 3.19444 13.5778 2.66667 12 2.66667C10.4222 2.66667 9.05556 3.19444 7.9 4.25C6.74444 5.30556 6.11111 6.6 6 8.13333L5.93333 9.2L4.93333 9.4C4.26667 9.53333 3.72222 9.83333 3.3 10.3C2.87778 10.7667 2.66667 11.3333 2.66667 12C2.66667 12.7333 2.92778 13.3611 3.45 13.8833C3.97222 14.4056 4.6 14.6667 5.33333 14.6667ZM12.0667 23.5333L15.6667 16.5333C15.1333 16.8 14.5556 17 13.9333 17.1333C13.3111 17.2667 12.6667 17.3333 12 17.3333C11.4 17.3333 10.7944 17.2667 10.1833 17.1333C9.57222 17 8.97778 16.8 8.4 16.5333L12.0667 23.5333Z" fill="#006D37"/>
</svg>
