<svg width="27" height="26" viewBox="0 0 27 26" fill="none" xmlns="http://www.w3.org/2000/svg">
<path d="M13.3333 25.3333L0 5.33333C1.88889 3.73333 3.96111 2.44444 6.21667 1.46667C8.47222 0.488889 10.8444 0 13.3333 0C15.8222 0 18.1944 0.483333 20.45 1.45C22.7056 2.41667 24.7778 3.71111 26.6667 5.33333L13.3333 25.3333ZM13.3333 20.5333L23.0667 5.93333C21.6222 4.93333 20.0778 4.13889 18.4333 3.55C16.7889 2.96111 15.0889 2.66667 13.3333 2.66667C11.5778 2.66667 9.88333 2.96111 8.25 3.55C6.61667 4.13889 5.06667 4.93333 3.6 5.93333L13.3333 20.5333ZM10 9.33333C10.5556 9.33333 11.0278 9.13889 11.4167 8.75C11.8056 8.36111 12 7.88889 12 7.33333C12 6.77778 11.8056 6.30556 11.4167 5.91667C11.0278 5.52778 10.5556 5.33333 10 5.33333C9.44444 5.33333 8.97222 5.52778 8.58333 5.91667C8.19444 6.30556 8 6.77778 8 7.33333C8 7.88889 8.19444 8.36111 8.58333 8.75C8.97222 9.13889 9.44444 9.33333 10 9.33333ZM13.3333 16C13.8889 16 14.3611 15.8056 14.75 15.4167C15.1389 15.0278 15.3333 14.5556 15.3333 14C15.3333 13.4444 15.1389 12.9722 14.75 12.5833C14.3611 12.1944 13.8889 12 13.3333 12C12.7778 12 12.3056 12.1944 11.9167 12.5833C11.5278 12.9722 11.3333 13.4444 11.3333 14C11.3333 14.5556 11.5278 15.0278 11.9167 15.4167C12.3056 15.8056 12.7778 16 13.3333 16Z" fill="#006D37"/>
</svg>
