<svg width="30" height="26" viewBox="0 0 30 26" fill="none" xmlns="http://www.w3.org/2000/svg">
<path d="M2.66667 17.3333C1.93333 17.3333 1.30556 17.0722 0.783333 16.55C0.261111 16.0278 0 15.4 0 14.6667V2.66667C0 1.93333 0.261111 1.30556 0.783333 0.783333C1.30556 0.261111 1.93333 0 2.66667 0H26.6667C27.4 0 28.0278 0.261111 28.55 0.783333C29.0722 1.30556 29.3333 1.93333 29.3333 2.66667V14.6667C29.3333 15.4 29.0722 16.0278 28.55 16.55C28.0278 17.0722 27.4 17.3333 26.6667 17.3333H2.66667ZM2.66667 2.66667V14.6667H26.6667V2.66667H2.66667ZM2.76667 22L2.66667 20L26.6333 18.7333L26.7333 20.7333L2.76667 22ZM2.66667 25.3V23.3H26.6667V25.3H2.66667ZM12.3333 12.6667C13.9778 12.6667 15.5611 12.3778 17.0833 11.8C18.6056 11.2222 19.9333 10.3333 21.0667 9.13333C21.2 10.0667 21.6889 10.7778 22.5333 11.2667C23.3778 11.7556 24.3111 12 25.3333 12V5.33333C24.3111 5.33333 23.3778 5.58333 22.5333 6.08333C21.6889 6.58333 21.2 7.31111 21.0667 8.26667C19.8889 7.11111 18.55 6.22222 17.05 5.6C15.55 4.97778 13.9778 4.66667 12.3333 4.66667C10.5778 4.66667 8.88889 4.97222 7.26667 5.58333C5.64444 6.19444 4.33333 7.22222 3.33333 8.66667C4.33333 10.1111 5.64444 11.1389 7.26667 11.75C8.88889 12.3611 10.5778 12.6667 12.3333 12.6667ZM2.66667 2.66667V14.6667V2.66667Z" fill="#006D37"/>
</svg>
